Coordinates
version=1
nRows=9
nColumns=24
inDegrees=yes

Units are S.I. units (second, meters, Newtons, ...)
Angles are in degrees.

endheader
time	pelvis_tilt	pelvis_list	pelvis_rotation	pelvis_tx	pelvis_ty	pelvis_tz	hip_flexion_r	hip_adduction_r	hip_rotation_r	knee_angle_r	ankle_angle_r	subtalar_angle_r	mtp_angle_r	hip_flexion_l	hip_adduction_l	hip_rotation_l	knee_angle_l	ankle_angle_l	subtalar_angle_l	mtp_angle_l	lumbar_extension	lumbar_bending	lumbar_rotation
      0.70400000	      2.12561703	      3.27140213	      8.55231647	     -0.05180626	      0.97485828	      0.24406538	     27.70923579	     -8.69661147	    -10.50010029	     -1.72232438	      8.15895345	     -8.68549944	     -1.00421261	    -24.74123933	      2.47948918	      4.50752071	     -4.96435365	     11.11987746	    -11.50552655	      0.19870694	    -15.16069995	     -0.51049046	     -5.07201737
      0.70816667	      2.19940095	      3.19275642	      8.64068468	     -0.04533435	      0.97391394	      0.24440580	     27.60057689	     -8.61380981	    -10.40761580	     -2.39652249	      8.24422414	     -8.57781317	     -1.27583795	    -25.11958952	      2.23794294	      4.37741375	     -5.08970421	     11.01049322	    -11.18809202	      0.23307669	    -15.17643482	     -0.30764527	     -5.23106278
      0.71233333	      2.22511032	      3.11695854	      8.76585296	     -0.03879680	      0.97294378	      0.24469520	     27.51384473	     -8.55084731	    -10.38156822	     -3.04128153	      8.30804087	     -8.44625727	     -1.54624394	    -25.43437079	      1.99286192	      4.29293438	     -5.23806271	     10.85087629	    -10.89869169	      0.29465554	    -15.12996558	     -0.11218635	     -5.28524397
      0.71650000	      2.19192409	      3.08172613	      8.89801787	     -0.03226008	      0.97192170	      0.24502529	     27.47269210	     -8.52477633	    -10.31932923	     -3.65078043	      8.26370203	     -8.46009262	     -1.59358275	    -25.68363283	      1.79662603	      4.29590459	     -5.39424651	     10.60587547	    -10.76000021	      0.31076850	    -15.03015098	      0.01111859	     -5.30930132
      0.72066667	      2.23614748	      2.96379717	      8.99414131	     -0.02554224	      0.97101166	      0.24540505	     27.31336820	     -8.38602444	    -10.33484417	     -4.18318773	      8.20431621	     -8.28810920	     -1.76759892	    -26.00689982	      1.51099742	      4.11600614	     -5.56189133	     10.43187365	    -10.41137241	      0.40876089	    -14.97640341	      0.26246954	     -5.43966007
      0.72483333	      2.28213494	      2.82785317	      9.14434966	     -0.01879816	      0.97019903	      0.24573879	     27.09391242	     -8.23574139	    -10.39045683	     -4.60668728	      7.97310015	     -8.32275873	     -1.95216106	    -26.30982924	      1.18270379	      3.99522372	     -5.75133643	     10.18592260	    -10.10741968	      0.56358409	    -14.92386222	      0.52824391	     -5.53370299
      0.72900000	      2.35014039	      2.69684302	      9.29597915	     -0.01207009	      0.96947045	      0.24610123	     26.82937140	     -8.07802557	    -10.44449741	     -4.97297519	      7.68097707	     -8.40761277	     -2.13402613	    -26.60492796	      0.85404757	      3.85202629	     -5.99398067	      9.90836684	     -9.82847806	      0.80528404	    -14.91348510	      0.78940722	     -5.61850129
      0.73316667	      2.35294807	      2.56004067	      9.41466599	     -0.00523584	      0.96866925	      0.24650708	     26.63536155	     -7.90471644	    -10.50995741	     -5.30870486	      7.26840470	     -8.50293726	     -2.21970823	    -26.84753268	      0.54841993	      3.74594426	     -6.20616473	      9.58592765	     -9.62919271	      0.99660989	    -14.79709077	      1.03457609	     -5.68080217
      0.73733333	      2.43580268	      2.38975803	      9.56363659	      0.00156577	      0.96808111	      0.24692586	     26.30483286	     -7.68236838	    -10.58238742	     -5.52480737	      6.73320507	     -8.72925714	     -2.28076935	    -27.11685271	      0.17506371	      3.56427128	     -6.50443250	      9.23487310	     -9.33870914	      1.28753228	    -14.79592184	      1.33720972	     -5.77183237
